<svg width="174" height="278" viewBox="0 0 174 278" fill="none" xmlns="http://www.w3.org/2000/svg">
<g clip-path="url(#clip0_12_957)">
<path d="M70.5892 266.339C60.7423 262.231 52.7019 257.062 46.4684 250.832C40.1673 244.771 35.7922 237.598 33.3431 229.313C30.8264 221.197 30.1163 212.021 31.2129 201.783C32.4806 191.612 35.5211 180.466 40.3344 168.343C43.5207 160.318 44.8665 153.439 44.3716 147.708C44.1152 141.874 42.0507 136.607 38.1782 131.906L36.3789 129.71C32.9512 125.384 32.051 121.172 33.678 117.074L36.5254 109.903C38.1524 105.805 41.6966 103.358 47.1581 102.561L50.2307 102.299C56.1696 101.297 61.1994 98.8463 65.3199 94.9478C69.6792 90.9463 73.4181 85.0185 76.5366 77.1642C81.35 65.0413 86.7837 54.8448 92.8379 46.5747C99.0629 38.3726 105.874 32.1822 113.272 28.0037C120.67 23.8252 128.689 21.5731 137.327 21.2475C146.137 20.9898 155.585 22.8632 165.671 26.8677L166.952 27.3766C168.663 28.0556 169.826 29.1106 170.445 30.5423C171.065 31.9742 171.035 33.5437 170.357 35.2512L163.848 51.6428C163.171 53.3502 162.115 54.5125 160.683 55.1298C159.25 55.747 157.851 55.7841 156.483 55.2411L155.2 54.732C147.544 52.0871 140.866 51.7091 135.169 53.5979C129.54 55.316 124.412 59.5067 119.788 66.1701C115.231 72.6626 110.58 81.885 105.834 93.8373C101.699 104.253 96.5319 112.282 90.3335 117.925C84.306 123.636 77.6905 126.841 70.4872 127.538C73.6732 130.977 75.8202 135.289 76.9281 140.474C78.2751 145.554 78.633 151.132 78.0022 157.206C77.3711 163.281 75.7337 169.649 73.0896 176.308C68.4119 188.089 65.4702 197.99 64.2646 206.01C63.0588 214.032 63.8292 220.564 66.5761 225.608C69.4261 230.89 74.6295 235.23 82.1864 238.625L83.3668 239.391C84.7344 239.933 85.7277 240.92 86.3465 242.353C86.9654 243.784 86.9359 245.353 86.258 247.061L79.7498 263.452C79.1396 264.989 78.1183 266.066 76.6858 266.684C75.1855 267.472 73.5808 267.526 71.8713 266.848L70.5892 266.339Z" fill="#151B24" fill-opacity="0.3"/>
</g>
<defs>
<clipPath id="clip0_12_957">
<rect width="115" height="257" fill="white" transform="translate(61.4271) rotate(13.8285)"/>
</clipPath>
</defs>
</svg>
