<svg width="48" height="48" viewBox="0 0 48 48" fill="none" xmlns="http://www.w3.org/2000/svg">
<path d="M22.5124 36.6667L23.9284 6H34.6776C38.4091 6 41.2771 6.84 43.2817 8.52C45.2862 10.1657 46.2884 12.4286 46.2884 15.3086C46.2884 17.2629 45.8875 18.9086 45.0857 20.2457C44.3148 21.5829 43.2662 22.6114 41.9402 23.3314C40.6141 24.0514 39.1801 24.4114 37.6381 24.4114L38.4708 22.8686C40.3211 22.8686 41.9556 23.2286 43.3742 23.9486C44.7928 24.6686 45.9184 25.7314 46.751 27.1371C47.5837 28.5086 48 30.2229 48 32.28C48 35.3657 46.9515 37.7657 44.8544 39.48C42.7882 41.16 39.7043 42 35.6028 42H11.8926L22.5124 36.6667ZM28.6483 37.8343H35.4177C37.9774 37.8343 39.9356 37.3543 41.2925 36.3943C42.6495 35.4343 43.3279 33.9257 43.3279 31.8686C43.3279 29.7771 42.6495 28.2514 41.2925 27.2914C39.9356 26.3314 37.9774 25.8514 35.4177 25.8514H24.362V21.6857H34.2613C36.605 21.6857 38.4245 21.2057 39.7198 20.2457C41.015 19.2857 41.6626 17.8457 41.6626 15.9257C41.6626 14.0057 41.015 12.5657 39.7198 11.6057C38.4245 10.6457 36.605 10.1657 34.2613 10.1657H28.6483V37.8343Z" fill="#13C4A3"/>
<path d="M12.2228 42C9.7463 42 7.42956 41.5593 5.27259 40.678C3.11562 39.7966 1.35809 38.5254 0 36.8644L3.47512 33.4068C4.63349 34.7627 5.93166 35.8136 7.36964 36.5593C8.84757 37.2712 10.4653 37.6271 12.2228 37.6271C17.0161 37.6271 21.2635 35.2855 21.2635 30.4719V10.0449L4.25402 9.8427V6H25.3444V30.1525C25.3444 34.1186 24.226 37.0847 21.9891 39.0508C19.7922 41.017 16.5368 42 12.2228 42Z" fill="white"/>
<path d="M14.5924 28.3469L10.5708 24.3469L6.54922 28.3469" stroke="white" stroke-width="2.13131" stroke-linecap="round" stroke-linejoin="round"/>
<path d="M6.54922 16.7913L10.5708 20.7913L14.5924 16.7913" stroke="white" stroke-width="2.13131" stroke-linecap="round" stroke-linejoin="round"/>
<path d="M16.8267 25.2357L16.8267 19.9024" stroke="white" stroke-width="2.13131" stroke-linecap="round" stroke-linejoin="round"/>
</svg>
