<svg xmlns="http://www.w3.org/2000/svg" width="82" height="82" viewBox="0 0 82 82" fill="none">
  <path d="M38.4332 0.924228C38.26 0.93997 37.709 0.995066 37.213 1.03442C25.775 2.0655 15.0612 8.23625 8.2755 17.7206C4.49694 22.9941 2.08023 28.976 1.16707 35.312C0.844322 37.5237 0.804962 38.177 0.804962 41.1758C0.804962 44.1746 0.844322 44.8279 1.16707 47.0396C3.35549 62.1595 14.1165 74.863 28.7112 79.5698C31.3248 80.412 34.08 80.9866 37.213 81.3329C38.4332 81.4667 43.7074 81.4667 44.9276 81.3329C50.3357 80.7347 54.9172 79.3967 59.4357 77.0905C60.1284 76.7363 60.2623 76.6419 60.1678 76.5631C60.1048 76.5159 57.1528 72.5569 53.6104 67.7714L47.1711 59.0741L39.1023 47.134C34.6625 40.5697 31.0099 35.2018 30.9784 35.2018C30.9469 35.1939 30.9154 40.4989 30.8997 46.9766C30.876 58.3185 30.8682 58.775 30.7265 59.0426C30.5218 59.4283 30.3644 59.5857 30.0337 59.7589C29.7818 59.8848 29.5614 59.9084 28.3727 59.9084H27.0109L26.6488 59.6802C26.4126 59.5306 26.2394 59.3338 26.1214 59.1056L25.956 58.7514L25.9718 42.9703L25.9954 27.1814L26.2394 26.8744C26.3654 26.7091 26.633 26.4966 26.822 26.3943C27.1447 26.2369 27.2707 26.2212 28.6325 26.2212C30.2384 26.2212 30.5061 26.2841 30.9233 26.7406C31.0414 26.8666 35.4103 33.4466 40.6373 41.3726C45.8644 49.2985 53.0121 60.1209 56.5231 65.4338L62.8994 75.0913L63.2221 74.8788C66.0797 73.0213 69.1025 70.3766 71.4956 67.6218C76.5888 61.7738 79.8714 54.6428 80.9735 47.0396C81.2963 44.8279 81.3356 44.1746 81.3356 41.1758C81.3356 38.177 81.2963 37.5237 80.9735 35.312C78.7851 20.1921 68.0241 7.48852 53.4294 2.78175C50.8552 1.94744 48.1158 1.37287 45.0457 1.02655C44.29 0.947841 39.0866 0.861262 38.4332 0.924228ZM54.9172 25.2767C55.295 25.4656 55.602 25.8276 55.7122 26.2054C55.7752 26.4101 55.791 30.7863 55.7752 40.6484L55.7516 54.8002L53.2562 50.975L50.7529 47.1498V36.8626C50.7529 30.2117 50.7844 26.473 50.8316 26.292C50.9575 25.8512 51.2331 25.5049 51.6109 25.3003C51.9337 25.135 52.0518 25.1192 53.2877 25.1192C54.4527 25.1192 54.6574 25.135 54.9172 25.2767Z" fill="#20C9A3"/>
</svg>