<svg xmlns="http://www.w3.org/2000/svg" width="92" height="105" viewBox="0 0 92 105" fill="none">
  <g clip-path="url(#clip0_6_114)">
    <path d="M91.8813 52.6871C91.8813 46.6181 84.2933 40.8665 72.6595 37.2998C75.3442 25.4232 74.151 15.9742 68.8934 12.9491C67.6815 12.2394 66.2646 11.9033 64.7172 11.9033V16.0676C65.5748 16.0676 66.2646 16.2357 66.8426 16.5531C69.3781 18.0097 70.4781 23.5558 69.6205 30.6892C69.4154 32.4446 69.0798 34.2933 68.6697 36.1794C65.0155 35.283 61.0257 34.5921 56.8308 34.1439C54.3139 30.6892 51.7037 27.552 49.0749 24.807C55.1528 19.1488 60.8579 16.0489 64.7358 16.0489V11.8846C59.6087 11.8846 52.8969 15.5447 46.1106 21.8938C39.3242 15.5821 32.6124 11.9593 27.4853 11.9593V16.1236C31.3446 16.1236 37.0683 19.2048 43.1462 24.8256C40.536 27.5707 37.9259 30.6892 35.4462 34.1439C31.2327 34.5921 27.2429 35.283 23.5887 36.198C23.1599 34.3307 22.843 32.5193 22.6192 30.7826C21.743 23.6492 22.8243 18.103 25.3413 16.6278C25.9006 16.2917 26.6277 16.1423 27.4853 16.1423V11.978C25.9192 11.978 24.5023 12.3141 23.2718 13.0238C18.0328 16.0489 16.8583 25.4792 19.5616 37.3185C7.96514 40.9039 0.414368 46.6367 0.414368 52.6871C0.414368 58.7561 8.00243 64.5076 19.6362 68.0744C16.9515 79.951 18.1447 89.3999 23.4023 92.4251C24.6141 93.1347 26.0311 93.4708 27.5972 93.4708C32.7242 93.4708 39.436 89.8108 46.2224 83.4616C53.0088 89.7734 59.7206 93.3961 64.8477 93.3961C66.4137 93.3961 67.8307 93.06 69.0612 92.3504C74.3001 89.3252 75.4747 79.8949 72.7713 68.0557C84.3305 64.489 91.8813 58.7374 91.8813 52.6871ZM67.607 40.2316C66.9171 42.6405 66.0595 45.1242 65.09 47.6078C64.3256 46.1139 63.5239 44.62 62.6477 43.1261C61.7901 41.6321 60.8765 40.1756 59.963 38.7564C62.6104 39.1485 65.1646 39.634 67.607 40.2316ZM59.0681 60.1193C57.6138 62.6403 56.1223 65.0305 54.5749 67.2527C51.7969 67.4955 48.9817 67.6262 46.1478 67.6262C43.3326 67.6262 40.5174 67.4955 37.7581 67.2714C36.2106 65.0492 34.7005 62.6776 33.2463 60.1753C31.8293 57.729 30.5429 55.2454 29.3683 52.7431C30.5243 50.2408 31.8293 47.7385 33.2276 45.2922C34.6819 42.7712 36.1734 40.381 37.7208 38.1588C40.4987 37.916 43.314 37.7853 46.1478 37.7853C48.9631 37.7853 51.7783 37.916 54.5376 38.1401C56.085 40.3623 57.5952 42.7339 59.0494 45.2362C60.4664 47.6825 61.7528 50.1661 62.9273 52.6684C61.7528 55.1707 60.4663 57.673 59.0681 60.1193ZM65.09 57.6917C66.0968 60.194 66.9544 62.6963 67.6629 65.1239C65.2206 65.7215 62.6477 66.2257 59.9816 66.6178C60.8952 65.1799 61.8087 63.7047 62.6663 62.1921C63.524 60.6982 64.3256 59.1856 65.09 57.6917ZM46.1851 77.6167C44.4512 75.824 42.7174 73.8259 41.0021 71.6411C42.6801 71.7158 44.3953 71.7718 46.1292 71.7718C47.8817 71.7718 49.6156 71.7344 51.3122 71.6411C49.6343 73.8259 47.9004 75.824 46.1851 77.6167ZM32.3141 66.6178C29.6666 66.2257 27.1124 65.7401 24.6701 65.1426C25.3599 62.7336 26.2175 60.25 27.187 57.7664C27.9514 59.2603 28.7531 60.7542 29.6294 62.2481C30.5056 63.742 31.4005 65.1986 32.3141 66.6178ZM46.0919 27.7574C47.8258 29.5501 49.5597 31.5482 51.2749 33.7331C49.597 33.6584 47.8817 33.6024 46.1478 33.6024C44.3953 33.6024 42.6614 33.6397 40.9648 33.7331C42.6428 31.5482 44.3767 29.5501 46.0919 27.7574ZM32.2954 38.7564C31.3819 40.1943 30.4683 41.6695 29.6107 43.1821C28.7531 44.676 27.9514 46.1699 27.187 47.6638C26.1802 45.1615 25.3226 42.6592 24.6141 40.2316C27.0565 39.6527 29.6294 39.1485 32.2954 38.7564ZM15.4227 62.1361C8.82277 59.3163 4.55331 55.6189 4.55331 52.6871C4.55331 49.7553 8.82277 46.0392 15.4227 43.2381C17.0261 42.5472 18.7786 41.9309 20.5871 41.352C21.6498 45.0121 23.0481 48.8216 24.7819 52.7244C23.0667 56.6086 21.6871 60.3994 20.643 64.0408C18.7973 63.4619 17.0447 62.827 15.4227 62.1361ZM25.4531 88.8211C22.9175 87.3645 21.8176 81.8183 22.6752 74.6849C22.8803 72.9296 23.2159 71.0809 23.626 69.1948C27.2802 70.0911 31.27 70.7821 35.4649 71.2302C37.9818 74.6849 40.592 77.8221 43.2207 80.5672C37.1428 86.2254 31.4378 89.3252 27.5599 89.3252C26.7209 89.3066 26.0124 89.1385 25.4531 88.8211ZM69.6764 74.5915C70.5527 81.725 69.4713 87.2711 66.9544 88.7464C66.3951 89.0825 65.668 89.2319 64.8104 89.2319C60.9511 89.2319 55.2274 86.1507 49.1495 80.5298C51.7597 77.7848 54.3698 74.6662 56.8494 71.2116C61.063 70.7634 65.0527 70.0725 68.707 69.1575C69.1358 71.0435 69.4714 72.8549 69.6764 74.5915ZM76.8543 62.1361C75.251 62.827 73.4984 63.4432 71.69 64.0221C70.6273 60.362 69.229 56.5526 67.4951 52.6497C69.2103 48.7656 70.59 44.9748 71.634 41.3334C73.4798 41.9123 75.2323 42.5472 76.873 43.2381C83.4729 46.0579 87.7424 49.7553 87.7424 52.6871C87.7237 55.6189 83.4543 59.335 76.8543 62.1361Z" fill="#13C4A3"/>
    <path d="M46.1292 61.2211C50.8348 61.2211 54.6495 57.4003 54.6495 52.6871C54.6495 47.9739 50.8348 44.1531 46.1292 44.1531C41.4236 44.1531 37.609 47.9739 37.609 52.6871C37.609 57.4003 41.4236 61.2211 46.1292 61.2211Z" fill="#13C4A3"/>
  </g>
  <defs>
    <clipPath id="clip0_6_114">
      <rect width="91.4669" height="104.392" fill="white" transform="translate(0.414368 0.481934)"/>
    </clipPath>
  </defs>
</svg>