<svg width="139" height="211" viewBox="0 0 139 211" fill="none" xmlns="http://www.w3.org/2000/svg">
<g clip-path="url(#clip0_12_959)">
<path d="M86.0747 9.59194C93.3252 13.0515 99.1772 17.241 103.63 22.1611C108.141 26.956 111.161 32.5146 112.691 38.8377C114.278 45.0356 114.467 51.9634 113.257 59.621C111.921 67.222 109.215 75.4898 105.139 84.4254C102.441 90.3404 101.17 95.4627 101.326 99.7914C101.3 104.188 102.654 108.227 105.389 111.907L106.66 113.627C109.075 117.009 109.593 120.211 108.215 123.231L105.804 128.517C104.426 131.537 101.669 133.244 97.5317 133.638L95.2112 133.719C90.7072 134.25 86.8325 135.903 83.5871 138.68C80.1583 141.525 77.1234 145.842 74.4827 151.631C70.4067 160.567 65.9367 168.03 61.0726 174.021C56.0825 179.955 50.7271 184.354 45.0065 187.218C39.2857 190.082 33.171 191.474 26.6623 191.394C20.0276 191.256 12.9932 189.492 5.55908 186.101L4.61451 185.67C3.35388 185.095 2.51858 184.257 2.10716 183.157C1.69501 182.057 1.77664 180.878 2.35059 179.62L7.86199 167.538C8.43595 166.279 9.27336 165.445 10.3735 165.035C11.4744 164.624 12.5282 164.649 13.5365 165.109L14.4817 165.54C20.1402 167.817 25.1474 168.353 29.503 167.147C33.8011 166.067 37.8145 163.108 41.5431 158.271C45.2142 153.56 49.059 146.8 53.0777 137.99C56.5796 130.313 60.7674 124.469 65.6411 120.459C70.3889 116.391 75.4845 114.23 80.9277 113.977C78.6612 111.27 77.209 107.947 76.5709 104.006C75.7491 100.135 75.6899 95.9269 76.3929 91.3827C77.0961 86.8377 78.5671 82.1111 80.8061 77.2029C84.7672 68.519 87.3521 61.1841 88.5605 55.198C89.7692 49.2113 89.4357 44.2697 87.5598 40.3733C85.6153 36.2937 81.8656 32.8345 76.3104 29.9965L75.4516 29.3765C74.4435 28.917 73.7337 28.1374 73.3222 27.0369C72.9107 25.9371 72.9919 24.758 73.5659 23.4994L79.0772 11.4176C79.5939 10.285 80.4024 9.51337 81.5029 9.10291C82.6609 8.56659 83.8697 8.58635 85.1298 9.16076L86.0747 9.59194Z" fill="#151B24" fill-opacity="0.3"/>
</g>
<defs>
<clipPath id="clip0_12_959">
<rect width="86.5906" height="193.511" fill="white" transform="translate(82.9413 210.229) rotate(-163.307)"/>
</clipPath>
</defs>
</svg>
