<svg xmlns="http://www.w3.org/2000/svg" width="77" height="78" viewBox="0 0 77 78" fill="none">
<g clip-path="url(#clip0_6_100)">
<path d="M69.1794 0.635986H7.57746C3.4486 0.635986 0.101501 3.98309 0.101501 8.11195V69.7139C0.101501 73.8427 3.4486 77.1898 7.57746 77.1898H69.1794C73.3083 77.1898 76.6554 73.8427 76.6554 69.7139V8.11195C76.6554 3.98309 73.3083 0.635986 69.1794 0.635986Z" fill="#13C4A3"/>
<path d="M69.1794 0.635986H7.57746C3.4486 0.635986 0.101501 3.98309 0.101501 8.11195V69.7139C0.101501 73.8427 3.4486 77.1898 7.57746 77.1898H69.1794C73.3083 77.1898 76.6554 73.8427 76.6554 69.7139V8.11195C76.6554 3.98309 73.3083 0.635986 69.1794 0.635986Z" fill="#13C4A3"/>
<path fill-rule="evenodd" clip-rule="evenodd" d="M47.49 61.5537V69.0388C48.7068 69.6626 50.1459 70.1303 51.8074 70.4422C53.4688 70.7541 55.2199 70.91 57.0607 70.91C58.8548 70.91 60.559 70.7385 62.1737 70.3954C63.7884 70.0524 65.2042 69.487 66.4209 68.6995C67.6377 67.9122 68.6011 66.8829 69.3109 65.612C70.0206 64.341 70.3756 62.77 70.3756 60.8988C70.3756 59.5421 70.1728 58.3531 69.7672 57.3317C69.3615 56.3104 68.7766 55.402 68.0121 54.6067C67.2478 53.8114 66.3312 53.0979 65.2626 52.4664C64.194 51.8348 62.9889 51.2384 61.6472 50.6771C60.6645 50.2716 59.783 49.8779 59.003 49.4959C58.223 49.1137 57.56 48.7239 57.0139 48.3263C56.4679 47.9286 56.0467 47.5076 55.7504 47.0632C55.454 46.6187 55.3057 46.1158 55.3057 45.5544C55.3057 45.0399 55.4383 44.5759 55.7036 44.1627C55.9688 43.7494 56.3432 43.3947 56.8267 43.0984C57.3104 42.8022 57.9031 42.5721 58.6051 42.4084C59.3073 42.2446 60.0872 42.1629 60.9453 42.1629C61.5692 42.1629 62.2283 42.2097 62.9225 42.3031C63.6167 42.3967 64.3148 42.541 65.017 42.7358C65.719 42.9308 66.4014 43.1764 67.0645 43.4726C67.7274 43.769 68.3397 44.112 68.9013 44.5019V37.508C67.7626 37.0714 66.5184 36.7479 65.169 36.5373C63.8196 36.3268 62.2712 36.2216 60.5241 36.2216C58.7455 36.2216 57.0607 36.4126 55.4696 36.7947C53.8784 37.1767 52.4783 37.7731 51.2691 38.584C50.0601 39.395 49.1047 40.428 48.4027 41.6833C47.7007 42.9386 47.3496 44.4394 47.3496 46.186C47.3496 48.4159 47.9931 50.3184 49.2802 51.8934C50.5671 53.4683 52.521 54.8016 55.142 55.8932C56.1716 56.3143 57.131 56.7274 58.0202 57.1329C58.9094 57.5384 59.6778 57.9594 60.3251 58.396C60.9725 58.8326 61.4834 59.3082 61.8579 59.8229C62.2323 60.3374 62.4195 60.9221 62.4195 61.5772C62.4195 62.0606 62.3024 62.5088 62.0684 62.9221C61.8344 63.3354 61.4795 63.6939 61.0037 63.998C60.5279 64.3022 59.9351 64.5399 59.2253 64.7114C58.5154 64.883 57.6848 64.9687 56.7331 64.9687C55.1107 64.9687 53.504 64.6842 51.9127 64.115C50.3215 63.5459 48.8472 62.6921 47.49 61.5537ZM34.9066 43.1117H44.5088V36.9692H17.7448V43.1117H27.3V70.4615H34.9066V43.1117Z" fill="#14131B"/>
</g>
<defs>
<clipPath id="clip0_6_100">
<rect width="76.5539" height="76.5539" fill="white" transform="translate(0.101501 0.635986)"/>
</clipPath>
</defs>
</svg>