<svg width="20" height="20" viewBox="0 0 20 20" fill="none" xmlns="http://www.w3.org/2000/svg">
<g id="Ubuntu Logo">
<path id="Vector" d="M10.0582 18.081C14.7184 18.081 18.4963 14.3032 18.4963 9.64293C18.4963 4.9827 14.7184 1.20483 10.0582 1.20483C5.39798 1.20483 1.62012 4.9827 1.62012 9.64293C1.62012 14.3032 5.39798 18.081 10.0582 18.081Z" fill="#F47421"/>
<path id="Vector_2" d="M10.0582 13.7355C12.3184 13.7355 14.1507 11.9032 14.1507 9.64301C14.1507 7.3828 12.3184 5.55054 10.0582 5.55054C7.79802 5.55054 5.96576 7.3828 5.96576 9.64301C5.96576 11.9032 7.79802 13.7355 10.0582 13.7355Z" stroke="white" stroke-width="1.60324"/>
<g id="friend">
<path id="Vector_3" d="M4.32032 11.2249C5.19412 11.2249 5.90248 10.5165 5.90248 9.64271C5.90248 8.7689 5.19412 8.06055 4.32032 8.06055C3.44652 8.06055 2.73816 8.7689 2.73816 9.64271C2.73816 10.5165 3.44652 11.2249 4.32032 11.2249Z" fill="#F47421"/>
<g id="Vector_4">
<path d="M13.2459 9.64282H15.121H13.2459Z" fill="black"/>
<path d="M13.2459 9.64282H15.121" stroke="#F47421" stroke-width="0.60713"/>
</g>
<path id="Vector_5" d="M4.32026 10.7693C4.9424 10.7693 5.44674 10.265 5.44674 9.64283C5.44674 9.0207 4.9424 8.51636 4.32026 8.51636C3.69813 8.51636 3.19379 9.0207 3.19379 9.64283C3.19379 10.265 3.69813 10.7693 4.32026 10.7693Z" fill="white"/>
</g>
<g id="friend_2">
<path id="Vector_6" d="M11.557 3.88276C11.1201 4.63949 11.3794 5.60713 12.1361 6.04403C12.8929 6.48093 13.8605 6.22165 14.2974 5.46492C14.7343 4.70818 14.475 3.74055 13.7183 3.30365C12.9616 2.86674 11.9939 3.12602 11.557 3.88276Z" fill="#F47421"/>
<g id="Vector_7">
<path d="M8.46436 12.4036L7.52679 14.0275L8.46436 12.4036Z" fill="black"/>
<path d="M8.46436 12.4036L7.52679 14.0275" stroke="#F47421" stroke-width="0.60713"/>
</g>
<path id="Vector_8" d="M11.9517 4.11056C11.6406 4.64934 11.8252 5.33828 12.364 5.64935C12.9028 5.96042 13.5917 5.77582 13.9028 5.23703C14.2138 4.69825 14.0292 4.0093 13.4904 3.69824C12.9517 3.38717 12.2627 3.57177 11.9517 4.11056Z" fill="white"/>
</g>
<g id="friend_3">
<path id="Vector_9" d="M14.2974 13.8211C13.8605 13.0643 12.8928 12.8051 12.1361 13.242C11.3794 13.6789 11.1201 14.6465 11.557 15.4032C11.9939 16.16 12.9615 16.4193 13.7183 15.9824C14.475 15.5455 14.7343 14.5778 14.2974 13.8211Z" fill="#F47421"/>
<g id="Vector_10">
<path d="M8.46436 6.88232L7.52679 5.25841L8.46436 6.88232Z" fill="black"/>
<path d="M8.46436 6.88232L7.52679 5.25841" stroke="#F47421" stroke-width="0.60713"/>
</g>
<path id="Vector_11" d="M13.9028 14.0486C13.5917 13.5098 12.9028 13.3252 12.364 13.6363C11.8252 13.9474 11.6406 14.6363 11.9517 15.1751C12.2627 15.7139 12.9517 15.8985 13.4904 15.5874C14.0292 15.2763 14.2138 14.5874 13.9028 14.0486Z" fill="white"/>
</g>
</g>
</svg>
